<?xml version="1.0" encoding="iso-8859-1"?>
<!-- Uploaded to: SVG Repo, www.svgrepo.com, Generator: SVG Repo Mixer Tools -->
<!DOCTYPE svg PUBLIC "-//W3C//DTD SVG 1.1//EN" "http://www.w3.org/Graphics/SVG/1.1/DTD/svg11.dtd">
<svg fill="#000000" height="800px" width="800px" version="1.1" id="Capa_1" xmlns="http://www.w3.org/2000/svg" xmlns:xlink="http://www.w3.org/1999/xlink" 
	 viewBox="0 0 139.934 139.934" xml:space="preserve">
<g>
	<path d="M138.544,51.902c-2.391-14.405-10.691-28.343-22.051-37.851c-14.717-12.316-44.1-14.229-44.14-14.039
		c-14.38,0.1-28.85,1.24-41.05,9.47c-0.21,0.14-0.33,0.309-0.39,0.5c-0.05-0.03-0.1-0.06-0.15-0.09
		c-18.62,12.17-29.64,30.86-30.26,52.739c-0.135,4.791-2.227,35.975,12.638,51.67c4.148,4.38,7.755,9.266,12.695,12.756
		c0.19,0.135,0.391,0.26,0.587,0.389c5.024,3.994,10.766,6.978,17.181,8.916c12.48,3.77,27.29,4.79,40.03,1.93
		c0.602-0.135,1.2-0.289,1.799-0.453c8.264-1.028,16.83-5.4,23.695-9.414c0.295-0.172,6.243-3.659,8.894-5.782
		c8.947-7.167,14.685-18.812,16.724-29.989C134.818,92.251,142.318,74.652,138.544,51.902z M2.545,81.592
		c1.008,4.568,2.3,9.082,3.698,13.5c1.536,4.871,3.433,9.754,5.813,14.381C6.326,101.286,1.985,91.621,2.545,81.592z M84.857,43.341
		c0.221-0.139,0.381-0.35,0.43-0.629c0.761,0.72,1.461,1.529,2.08,2.47c0.19,0.739,0.351,1.5,0.48,2.26
		C86.998,46.002,85.988,44.612,84.857,43.341z M74.718,37.123c-1.37-0.301-2.72-0.42-4.04-0.381c0.55-0.08,1.09-0.17,1.62-0.26
		c1.229,0.1,2.45,0.25,3.63,0.45c0.109,0.08,0.231,0.149,0.35,0.229C75.767,37.132,75.248,37.123,74.718,37.123z M72.177,84.242
		c-0.65-0.07-1.28-0.21-1.91-0.359c0.018-0.005,0.035-0.013,0.053-0.019c0.59,0.139,1.18,0.267,1.788,0.333
		c0.75-0.1,1.5-0.24,2.25-0.47c5.936-1.782,10.376-6.086,12.927-11.373c0.062-0.069,0.13-0.131,0.192-0.202
		c-2.53,5.4-7.021,9.81-13.05,11.62C73.677,84.002,72.927,84.142,72.177,84.242z M79.067,88.562c-0.05-0.01-0.09-0.04-0.149-0.04
		c-0.58-0.03-1.15-0.05-1.73-0.069c0.86-0.291,1.721-0.711,2.58-1.291C79.637,87.692,79.418,88.162,79.067,88.562z M79.877,85.442
		c-0.15-0.11-0.35-0.18-0.59-0.17c-0.52,0.021-1.049,0.021-1.58,0.021c0.701-0.201,1.42-0.381,2.15-0.521
		c0.03,0.2,0.04,0.39,0.051,0.58C79.887,85.382,79.887,85.412,79.877,85.442z M114.336,123.005c-2.72,2.076-5.765,3.577-8.946,4.835
		c3.303-2.301,6.44-4.744,9.354-7.129c6.857-5.602,12.039-12.901,15.987-20.7C127.585,109.076,122.003,117.154,114.336,123.005z
		 M136.353,77.672c-2.4,12.58-7.9,24.14-15.83,33.83c-1.771-5.07-8.021-7.291-12.72-9c-4.51-1.641-10.597-2.681-14.946-4.771
		c-5.05-2.43-10.09-4.71-10.92-10.29c0.12-1.5-0.109-3.17-0.3-4.2c-0.03-0.22-0.14-0.369-0.261-0.479
		c5.57-3.75,8.861-9.86,9.891-16.421c0.13-0.304,0.244-0.617,0.357-0.93c0.243-0.102,0.453-0.295,0.567-0.598
		c0.814-2.163,2.319-3.989,3.016-6.234c0.699-2.258-0.36-3.888-2.484-3.929c-0.351-3.18-1.235-6.263-2.556-8.828
		c-0.44-0.859-0.93-1.64-1.44-2.359c-0.81-2.58-2.05-4.971-4.22-6.91c-4.061-3.62-10.16-6.2-15.71-5.441
		c-2.3,0-4.58,0.851-6.731,2.101c-9.1,1.529-14.22,11.529-14.95,21.01c-0.085,0.275-0.144,0.558-0.213,0.837
		c0.008,0.124,0.018,0.247,0.026,0.371c0.107,0.585,0.209,1.171,0.313,1.756c-2.946,0.188-3.222,2.736-2.175,5.419
		c1.077,2.76,2.009,5.6,4.518,6.849c0.331,1.743,0.669,3.484,1.061,5.214c2.424,3.636,5.742,6.749,9.54,8.824
		c0.62,1.5,1.04,3.08,1.41,4.66c0.109,0.73,0.29,1.471,0.5,2.21c-0.311,0.9-0.85,1.69-1.54,2.41c-1.559,1.24-3.35,2.351-5.13,3.34
		c-2.09,0.97-9.624,5.32-12.244,7.08c-2.06,1.141-4.11,2.311-6.12,3.58c-1.01,0.65-2.07,1.27-3.13,1.88
		c-3.02,1.49-6.13,2.979-8.55,5.101c-0.44,0.299-0.88,0.609-1.3,0.939c-1.73,1.311-2.45,3.12-2.74,5.1
		c-1.66-1.93-3.2-3.979-4.59-6.14c-9.57-14.8-14.7-35.069-14.21-52.41c0.58-20.739,12.14-38.7,29.75-50.021
		c0.08-0.049,0.13-0.109,0.18-0.17c12.63-8.439,27.66-9.109,42.491-9.1c0.39,0,20.646,1.033,34.989,9.61
		C132.21,24.871,140.953,53.622,136.353,77.672z M47.922,60.945c-0.096-0.298-0.178-0.601-0.238-0.913
		c-0.101-0.526-0.492-0.722-0.896-0.696c0.195-0.105,0.458-0.161,0.81-0.167C47.703,59.762,47.813,60.354,47.922,60.945z"/>
</g>
</svg>